<?xml version="1.0" encoding="UTF-8" standalone="no"?>
<!-- Generator: Adobe Illustrator 25.2.3, SVG Export Plug-In . SVG Version: 6.00 Build 0)  -->
<svg xmlns:inkscape="http://www.inkscape.org/namespaces/inkscape" xmlns:sodipodi="http://sodipodi.sourceforge.net/DTD/sodipodi-0.dtd" xmlns="http://www.w3.org/2000/svg" xmlns:svg="http://www.w3.org/2000/svg" version="1.1" id="Layer_1" x="0px" y="0px" viewBox="0 0 1299.4266 219.44531" xml:space="preserve" sodipodi:docname="Duplocloud-logo-color-black.svg" inkscape:export-filename="/Volumes/zwg/data/aglyn/clients/duplocloud/designs/logo-recolored/duplocloud-logo-color-black-1300x220.png" inkscape:export-xdpi="96" inkscape:export-ydpi="96" inkscape:version="1.1.1 (3bf5ae0d25, 2021-09-20)" width="1299.4266" height="219.44531"><defs id="defs1044"></defs>
<style type="text/css" id="style1031">
	.st0{fill-rule:evenodd;clip-rule:evenodd;}
	.st1{fill:#15C6B4;}
	.st2{fill:#5BBDE8;}
	.st3{fill:#F9C33D;}
	.st4{fill:#FA6B67;}
</style>
<g id="Logo_-_Black_Text" transform="matrix(6.2235552,0,0,6.2235552,-23.078823,-15.182726)">
	<g id="Logo_Text" transform="translate(0,2.4919559)">
		<path id="DuploCloud" class="st0" d="m 140.6,17.7 c 0,5.5 4.1,9.2 9.4,9.2 4.1,0 6.3,-2.2 7.6,-4.4 l -3.3,-1.6 c -0.7,1.5 -2.4,2.6 -4.3,2.6 -3.1,0 -5.5,-2.5 -5.5,-5.9 0,-3.4 2.4,-5.9 5.5,-5.9 2,0 3.6,1.1 4.3,2.6 l 3.3,-1.6 c -1.3,-2.2 -3.5,-4.4 -7.6,-4.4 -5.2,0.2 -9.4,3.9 -9.4,9.4 z M 65.5,26.6 V 8.8 h 7 c 5.6,0 9.5,3.6 9.5,8.9 0,5.4 -3.9,8.9 -9.5,8.9 z m 3.8,-3.3 h 3.2 c 3.5,0 5.6,-2.5 5.6,-5.6 0,-3.2 -1.9,-5.6 -5.6,-5.6 H 69.3 Z M 94,25 v 1.6 h 3.4 V 13.7 H 94 v 8.7 c -0.6,0.7 -1.6,1.5 -2.9,1.5 -1.4,0 -2.4,-0.6 -2.4,-2.4 v -7.8 h -3.4 v 9.2 c 0,2.5 1.3,4.1 4.2,4.1 2.1,-0.1 3.6,-1 4.5,-2 z m 10.9,6.5 h -3.4 V 13.7 h 3.4 v 1.6 c 1,-1.3 2.4,-2 4,-2 3.3,0 5.7,2.5 5.7,6.8 0,4.3 -2.4,6.8 -5.7,6.8 -1.5,0 -2.9,-0.6 -4,-2 z m 2.9,-15.1 c 2,0 3.3,1.5 3.3,3.7 0,2.2 -1.3,3.8 -3.3,3.8 -1.1,0 -2.4,-0.7 -2.9,-1.5 v -4.6 c 0.6,-0.8 1.8,-1.4 2.9,-1.4 z m 10.1,10.2 V 8.8 h 3.4 v 17.8 z m 6.6,-6.5 c 0,3.7 2.6,6.8 6.8,6.8 4.3,0 6.8,-3.1 6.8,-6.8 0,-3.7 -2.6,-6.8 -6.8,-6.8 -4.2,0.1 -6.8,3.2 -6.8,6.8 z m 6.8,3.8 c 2.1,0 3.3,-1.7 3.3,-3.8 0,-2 -1.2,-3.7 -3.3,-3.7 -2.1,0 -3.3,1.7 -3.3,3.7 0,2.1 1.2,3.8 3.3,3.8 z m 29.2,2.7 V 8.8 h 3.4 v 17.8 z m 6.6,-6.5 c 0,3.7 2.6,6.8 6.8,6.8 4.3,0 6.8,-3.1 6.8,-6.8 0,-3.7 -2.6,-6.8 -6.8,-6.8 -4.2,0.1 -6.8,3.2 -6.8,6.8 z m 6.9,3.8 c 2.1,0 3.3,-1.7 3.3,-3.8 0,-2 -1.2,-3.7 -3.3,-3.7 -2.1,0 -3.3,1.7 -3.3,3.7 0,2.1 1.1,3.8 3.3,3.8 z m 18.8,1.1 v 1.6 h 3.4 V 13.7 h -3.4 v 8.7 c -0.6,0.7 -1.6,1.5 -2.9,1.5 -1.4,0 -2.4,-0.6 -2.4,-2.4 V 13.7 H 184 v 9.2 c 0,2.5 1.3,4.1 4.2,4.1 2.1,-0.1 3.7,-1 4.6,-2 z m 16.3,1.6 V 25 c -1,1.3 -2.4,2 -4,2 -3.3,0 -5.7,-2.5 -5.7,-6.8 0,-4.2 2.4,-6.8 5.7,-6.8 1.5,0 3,0.7 4,2 V 8.8 h 3.4 v 17.8 z m 0,-8.7 v 4.6 c -0.6,0.9 -1.8,1.5 -2.9,1.5 -1.9,0 -3.3,-1.5 -3.3,-3.7 0,-2.2 1.3,-3.8 3.3,-3.8 1.1,-0.1 2.3,0.5 2.9,1.4 z"></path>
	</g>
	<g id="Duplo_Cloud" transform="translate(-0.29169795)">
		<path id="Path" class="st1" d="m 38,30.252546 c 0.6,1.2 0.2,2.8 -0.9,3.6 -1.1,0.8 -2.7,0.7 -3.7,-0.3 -1,-1 -1.1,-2.5 -0.3,-3.7 0.8,-1.1 2.3,-1.5 3.6,-0.9 l 1.2,-1.2 -6.4,-6.4 -16.3,16.3 H 47 c 0.2,0 0.5,0 0.8,0 l -8.6,-8.6 z" style="fill:#00c853;fill-opacity:1"></path>
		<path id="Path_2" class="st2" d="m 17.5,28.4 c -1.3,0.5 -2.8,0 -3.5,-1.2 -0.7,-1.2 -0.5,-2.7 0.6,-3.6 1.1,-0.9 2.6,-0.9 3.7,0 1.1,0.9 1.3,2.4 0.6,3.6 L 21,29.3 30.4,20 c 0,0 -7.9,-7.8 -7.9,-7.8 C 21,11 17.1,8.2 13,11.1 8.9,13.9 10.1,18.9 10.2,19.4 9.8,19.5 4,21.9 4,28.9 c 0,6.6 6.2,8.6 8.8,8.8 l 7,-7 z" style="fill:#0091ea;fill-opacity:1"></path>
		<path id="Path_3" class="st3" d="m 51.4,16.8 -3.1,3.1 1.8,1.8 c 1.2,-0.6 2.8,-0.3 3.6,0.8 0.8,1.1 0.7,2.7 -0.2,3.7 -1,1 -2.5,1.1 -3.7,0.4 -1.1,-0.8 -1.5,-2.3 -0.9,-3.5 l -1.9,-1.9 -6.4,6.4 9.6,9.6 C 53.9,36.4 58.4,34 59,27.7 59.7,20.4 53,17.4 51.4,16.8 Z" style="fill:#ffd600;fill-opacity:1"></path>
		<path id="Path_4" class="st4" d="m 29.4,11.3 c -0.7,-1.2 -0.3,-2.8 0.8,-3.6 1.1,-0.8 2.7,-0.8 3.7,0.2 1,1 1.2,2.5 0.4,3.7 -0.8,1.2 -2.3,1.6 -3.5,1 L 28.2,15.2 39.3,26.3 50.8,14.8 C 50.1,11 47.6,5.8 40.5,3.2 33.2,0.5 25.8,5.5 23.1,10.2 l 3.7,3.7 z" style="fill:#d50000;fill-opacity:1"></path>
	</g>
</g>
</svg>
